PathFileType	4	(X/Y/Z)	C:\Users\dbl\Desktop\20210112\20210112\bx_n_0_1802.trc
DataRate	CameraRate	NumFrames	NumMarkers	Units	OrigDataRate	OrigDataStartFrame	OrigNumFrames
50.00	50.00	       7	43	mm	50.00	372	       425
Frame#	Time	Top.Head			R.Acromium			L.Acromium			Sternum			R.ASIS			L.ASIS			V.Sacral			R.Thigh.Upper			R.Thigh.Front			R.Thigh.Rear			R.Knee.Lat			R.Knee.Med			R.Shank.Upper			R.Shank.Front			R.Shank.Rear			R.Ankle.Lat			R.Midfoot.Lat			R.Toe.Lat			R.Toe.Tip			R.Toe.Med			R.Ankle.Med			R.Midfoot.Sup			R.Heel			L.Thigh.Upper			L.Thigh.Front			L.Thigh.Rear			L.Knee.Lat			L.Knee.Med			L.Shank.Upper			L.Shank.Front			L.Shank.Rear			L.Ankle.Lat			L.Midfoot.Lat			L.Toe.Lat			L.Toe.Tip			L.Toe.Med			L.Ankle.Med			L.Midfoot.Sup			L.Heel			origin1 front left			origin2 front right			origin 3 back right			origin 4 back leftt			
		X1	Y1	Z1	X2	Y2	Z2	X3	Y3	Z3	X4	Y4	Z4	X5	Y5	Z5	X6	Y6	Z6	X7	Y7	Z7	X8	Y8	Z8	X9	Y9	Z9	X10	Y10	Z10	X11	Y11	Z11	X12	Y12	Z12	X13	Y13	Z13	X14	Y14	Z14	X15	Y15	Z15	X16	Y16	Z16	X17	Y17	Z17	X18	Y18	Z18	X19	Y19	Z19	X20	Y20	Z20	X21	Y21	Z21	X22	Y22	Z22	X23	Y23	Z23	X24	Y24	Z24	X25	Y25	Z25	X26	Y26	Z26	X27	Y27	Z27	X28	Y28	Z28	X29	Y29	Z29	X30	Y30	Z30	X31	Y31	Z31	X32	Y32	Z32	X33	Y33	Z33	X34	Y34	Z34	X35	Y35	Z35	X36	Y36	Z36	X37	Y37	Z37	X38	Y38	Z38	X39	Y39	Z39	X40	Y40	Z40	X41	Y41	Z41	X42	Y42	Z42	X43	Y43	Z43	

372	7.420	-660.57477	90.98227	1845.41382	-636.24921	-74.16530	1543.34998	-625.79559	283.61282	1540.48315	-563.45508	95.11378	1342.50024	-635.29449	-15.85017	1064.02515	-626.70447	232.29739	1071.43457	-832.12115	100.58248	1061.55469	-703.36053	-74.11089	878.36243	-612.17346	-18.91806	816.24664	-708.21863	-58.88657	761.86774	-704.46692	-32.32831	616.88580	-674.70227	75.80542	579.74817	-706.74402	-28.91377	569.43359	-653.69550	14.03457	520.34363	-752.81042	-38.26664	490.51825	-758.74152	-16.32105	208.53389	-651.26636	-69.69081	160.02242	-609.20789	-77.08919	158.26134	-553.02899	-33.23175	166.33789	-597.77942	23.14926	169.15501	-671.81165	52.19061	159.49205	-713.80939	70.65463	216.11496	-790.12891	43.81094	177.55923	-698.02759	281.94336	876.99695	-594.81879	217.22784	806.83173	-687.73187	264.39966	745.98608	-701.35925	244.50949	639.79004	-654.91412	137.82481	580.67432	-694.33643	240.08298	575.10779	-641.28516	198.49655	533.15753	-736.91443	250.12354	502.89139	-762.53015	223.50729	206.71199	-654.51837	293.05978	155.95001	-618.07446	300.74377	157.94112	-552.48340	248.74506	166.00044	-587.57233	211.92165	174.11476	-672.84082	167.13834	155.85789	-708.27582	149.02708	213.83046	-791.92969	174.83676	186.70261	-528.13910	304.16928	146.57690	-517.51355	-72.70471	143.47629	-876.00214	-78.82294	141.45290	-882.54968	296.18881	144.76064	
373	7.440	-665.05945	90.84979	1846.44482	-640.02539	-74.35435	1544.42639	-629.49933	283.55017	1541.27832	-564.76031	94.87505	1344.26367	-632.89063	-16.40202	1064.46765	-624.29596	231.90315	1071.67224	-829.72870	100.23871	1061.18311	-701.22272	-74.56269	878.52954	-610.67609	-19.49773	815.90332	-707.44531	-59.12761	762.04620	-705.23242	-32.61874	617.12164	-675.68921	75.46662	579.78583	-707.95026	-29.00823	569.51135	-654.66821	13.84044	520.56848	-753.75610	-38.41287	490.56259	-758.86047	-16.42313	208.27802	-651.27496	-69.72227	159.97433	-609.21039	-77.08830	158.25851	-553.09631	-33.16080	166.31841	-597.82031	23.15700	169.19203	-671.83966	52.17105	159.51106	-713.94342	70.59875	216.12953	-790.35016	43.69501	177.62994	-696.62665	281.39572	877.43127	-594.10333	216.91554	806.22083	-688.22327	263.77499	746.44348	-703.48279	244.05009	640.45599	-657.24597	137.30101	581.03302	-696.98535	239.44095	575.49835	-643.76923	198.01553	533.66968	-739.27997	249.67778	503.22794	-762.71692	223.44122	206.68796	-654.49219	293.03604	155.96892	-618.06104	300.69275	157.95343	-552.57373	248.71260	166.04605	-587.62427	211.87048	174.23265	-672.90070	167.06625	156.04337	-708.61859	149.10919	213.97305	-792.05237	174.89903	186.54239	-528.11682	304.14346	146.61470	-517.52594	-72.70263	143.49913	-876.00769	-78.81124	141.47160	-882.50470	296.14575	144.74129	
374	7.460	-669.50159	90.74167	1847.29993	-643.72852	-74.52595	1545.32056	-633.17474	283.52390	1541.87097	-566.10132	94.64326	1345.83972	-630.57538	-16.96514	1064.81897	-621.93567	231.53099	1071.80029	-827.43085	99.80090	1060.72522	-699.09808	-75.01416	878.62134	-609.05933	-20.05834	815.57959	-706.58905	-59.41290	762.20648	-705.90698	-32.91321	617.41370	-676.55359	75.03855	579.72412	-708.92773	-29.24604	569.58392	-655.59485	13.64329	520.76288	-754.62018	-38.65331	490.63486	-758.95026	-16.49147	208.05907	-651.28625	-69.74193	159.92920	-609.21075	-77.06857	158.23528	-553.15137	-33.08415	166.27071	-597.84869	23.15985	169.20605	-671.87787	52.16280	159.54346	-714.11737	70.46728	216.03946	-790.49329	43.59031	177.66365	-695.35394	280.92203	877.83044	-593.44305	216.73424	805.59204	-688.77106	263.23071	746.86304	-705.46320	243.58600	641.07758	-659.48889	136.88129	581.36444	-699.51147	238.94556	575.90857	-646.15112	197.68877	534.16956	-741.58136	249.28903	503.50214	-762.85797	223.40717	206.64363	-654.49200	293.00421	156.01048	-618.05176	300.67502	157.96249	-552.66766	248.68317	166.08278	-587.66980	211.85982	174.35893	-672.97528	167.01079	156.21556	-708.96857	149.13805	214.14217	-792.19312	175.00473	186.38544	-528.10260	304.13260	146.65723	-517.54340	-72.69607	143.51205	-876.01080	-78.79341	141.49246	-882.46179	296.12781	144.73412	
375	7.480	-673.88727	90.62868	1848.00378	-647.33612	-74.68116	1546.04114	-636.78229	283.56424	1542.28455	-567.44562	94.39259	1347.26306	-628.35400	-17.50535	1065.06567	-619.75494	231.27975	1071.95203	-825.24707	99.26333	1060.17737	-697.02136	-75.42184	878.64478	-607.41211	-20.54979	815.24695	-705.67944	-59.76722	762.37280	-706.74231	-33.16601	617.62250	-677.36438	74.54561	579.61096	-709.81952	-29.60740	569.67749	-656.52032	13.40048	520.97021	-755.51093	-38.93948	490.73578	-759.03735	-16.55551	207.93208	-651.32678	-69.77522	159.86748	-609.20923	-77.03919	158.19908	-553.20599	-33.03695	166.22418	-597.88342	23.17215	169.21234	-671.92401	52.13643	159.59415	-714.28986	70.27095	215.94191	-790.50623	43.48705	177.60318	-694.18707	280.53830	878.15735	-592.87866	216.65756	804.95422	-689.29614	262.77902	747.19843	-707.31775	243.10434	641.62646	-661.61194	136.58157	581.65082	-701.85461	238.62350	576.30798	-648.35382	197.49390	534.67035	-743.71759	248.97304	503.70435	-762.97522	223.37643	206.59543	-654.51361	292.96490	156.05829	-618.05469	300.69138	157.98624	-552.75812	248.64252	166.10011	-587.71991	211.87907	174.46130	-673.04858	166.99826	156.33786	-709.24158	149.11818	214.34795	-792.34027	175.11053	186.22020	-528.08588	304.12827	146.67885	-517.57324	-72.71841	143.47865	-876.01227	-78.77278	141.51047	-882.43890	296.14316	144.74239	
376	7.500	-678.19550	90.50439	1848.56128	-650.81274	-74.84647	1546.58984	-640.29529	283.62589	1542.52759	-568.75812	94.11971	1348.53601	-626.22150	-17.96850	1065.19995	-617.86859	231.24081	1072.13147	-823.19647	98.63715	1059.55530	-694.99115	-75.80927	878.64722	-605.81818	-20.95446	814.90088	-704.73444	-60.20376	762.54504	-707.75104	-33.39717	617.71155	-678.22571	74.01115	579.49078	-710.70142	-30.06975	569.83942	-657.46924	13.09390	521.18500	-756.44214	-39.24922	490.81479	-759.14539	-16.66548	207.87196	-651.39575	-69.83196	159.80472	-609.20313	-77.02473	158.17632	-553.27863	-33.03145	166.20879	-597.95721	23.20730	169.22456	-671.98975	52.07593	159.66338	-714.48193	70.03241	215.92302	-790.42114	43.34507	177.41782	-693.13330	280.21609	878.40094	-592.41028	216.63678	804.29742	-689.73773	262.41882	747.43292	-709.03772	242.64577	642.10315	-663.54803	136.38365	581.87695	-703.97241	238.43134	576.67303	-650.33264	197.37094	535.14661	-745.61584	248.73831	503.84311	-763.10278	223.32431	206.57527	-654.54193	292.93188	156.10085	-618.07025	300.71622	158.02251	-552.83783	248.58971	166.09923	-587.80640	211.90475	174.51128	-673.11829	167.02017	156.40317	-709.38037	149.04872	214.57681	-792.47174	175.18314	186.06059	-528.07672	304.11758	146.67001	-517.61584	-72.77831	143.40509	-876.00568	-78.74341	141.51724	-882.43219	296.16492	144.75124	
377	7.520	-682.39087	90.38716	1848.97229	-654.11517	-75.04163	1546.97681	-643.70892	283.63391	1542.61182	-570.02966	93.85062	1349.64246	-624.18781	-18.34030	1065.20667	-616.25446	231.36308	1072.27612	-821.31030	97.94528	1058.90295	-692.96814	-76.24377	878.65051	-604.32538	-21.24409	814.51318	-703.76038	-60.71769	762.71033	-708.75177	-33.72964	617.75366	-679.20935	73.47337	579.38885	-711.58435	-30.60930	570.07080	-658.46063	12.72858	521.36224	-757.34412	-39.62986	490.82620	-759.28455	-16.85349	207.80045	-651.46442	-69.90073	159.77147	-609.18793	-77.03646	158.17593	-553.37866	-33.04081	166.22528	-598.08881	23.27023	169.24664	-672.09088	51.98810	159.75182	-714.73474	69.77982	215.98860	-790.33636	43.13329	177.14363	-692.18921	279.92432	878.57849	-591.98071	216.62323	803.64069	-690.07416	262.11618	747.59082	-710.58319	242.27359	642.52722	-665.25604	136.26645	582.02649	-705.84802	238.30000	577.00372	-652.08862	197.26707	535.54553	-747.26697	248.58440	503.95041	-763.26428	223.27055	206.59695	-654.56885	292.92096	156.13617	-618.09033	300.71637	158.05208	-552.90656	248.53801	166.09045	-587.92670	211.92372	174.51607	-673.17786	167.06732	156.43532	-709.40234	148.94333	214.78041	-792.56921	175.21773	185.93813	-528.09167	304.09830	146.64760	-517.66351	-72.85799	143.33231	-875.98608	-78.71107	141.49594	-882.43042	296.16553	144.74268	
378	7.540	-686.44232	90.28560	1849.24536	-657.20911	-75.27217	1547.22559	-647.01733	283.57272	1542.57166	-571.26318	93.61477	1350.58154	-622.24658	-18.64810	1065.08325	-614.80066	231.47411	1072.38110	-819.59113	97.22773	1058.25916	-690.90839	-76.78958	878.64392	-602.97571	-21.37015	814.03021	-702.76709	-61.29962	762.86212	-709.58618	-34.28497	617.82013	-680.34607	72.95107	579.32922	-712.48834	-31.19802	570.30579	-659.49701	12.31086	521.47998	-758.17987	-40.14108	490.77002	-759.45282	-17.10633	207.66974	-651.50415	-69.96371	159.76717	-609.16498	-77.05840	158.17813	-553.49854	-33.01153	166.24437	-598.26184	23.35735	169.27953	-672.21722	51.88974	159.85794	-715.04828	69.53996	216.07672	-790.34503	42.85064	176.87489	-691.32831	279.62439	878.69122	-591.49628	216.60878	803.04578	-690.30994	261.84131	747.72546	-711.90369	242.01157	642.92468	-666.74188	136.19032	582.10907	-707.48865	238.19818	577.30341	-653.65283	197.18460	535.84705	-748.71826	248.50304	504.04630	-763.45868	223.26712	206.62439	-654.59528	292.93301	156.14104	-618.10773	300.68652	158.06413	-552.97131	248.50165	166.08305	-588.03540	211.93663	174.51866	-673.19641	167.14905	156.48726	-709.35968	148.82994	214.92862	-792.63147	175.23148	185.87294	-528.12616	304.08270	146.63916	-517.70685	-72.93991	143.29585	-875.95752	-78.68899	141.44286	-882.42688	296.15134	144.72421	
